<svg xmlns="http://www.w3.org/2000/svg" width="512" height="512" viewBox="0 0 512 512"><rect width="512" height="512" rx="112" fill="#171412"/><rect x="96" y="96" width="320" height="320" rx="78" fill="#fffaf4"/><path d="M96 256h320M256 96v320" stroke="#171412" stroke-width="18" opacity=".75"/><path d="M150 160c18-25 55-13 55 17 0 21-20 33-55 52-35-19-55-31-55-52 0-30 37-42 55-17z" fill="#d3a760"/><path d="M295 175h35v100h-35zM345 140h35v135h-35zM245 215h35v60h-35z" fill="#d3a760"/><path d="M128 335l28 28 63-72" fill="none" stroke="#171412" stroke-width="25" stroke-linecap="round" stroke-linejoin="round"/></svg>